<svg width="299.5599914550781px" height="122.39999389648438px" xmlns="http://www.w3.org/2000/svg" viewBox="100.22000427246095 13.800003051757812 299.5599914550781 122.39999389648438" style="background: rgba(0, 0, 0, 0) none repeat scroll 0% 0%;" preserveAspectRatio="xMidYMid"><defs><linearGradient id="editing-gradow-gradient" x1="0" x2="1" y1="0.5" y2="0.5" gradientUnits="objectBoundingBox"><stop offset="0" stop-color="#f0f"></stop><stop offset="1" stop-color="#0ff"></stop></linearGradient><filter id="editing-gradow-filter" x="-100%" y="-100%" width="300%" height="300%"><feFlood flood-color="#fffcd9" result="flood"></feFlood><feComposite operator="in" in2="SourceAlpha" in="flood" result="shadow"></feComposite><feOffset dx="-4" dy="-4" in="SourceGraphic" result="offset-1"></feOffset><feOffset dx="4" dy="4" in="shadow" result="offset-2"></feOffset><feMerge><feMergeNode in="offset-2"></feMergeNode><feMergeNode in="offset-1"></feMergeNode></feMerge></filter></defs><g filter="url(#editing-gradow-filter)"><g transform="translate(147.66499024629593, 97.07999992370605)"><path d="M0.45-0.32L0.45-0.32L8.51-42.24L8.51-42.24Q16.06-42.88 20.93-42.88L20.93-42.88L20.93-42.88Q25.79-42.88 28.93-42.46L28.93-42.46L28.93-42.46Q32.06-42.05 34.18-40.96L34.18-40.96L34.18-40.96Q38.40-38.91 38.40-33.28L38.40-33.28L38.40-33.28Q38.40-30.02 35.58-27.26L35.58-27.26L35.58-27.26Q32.96-24.77 30.08-24.19L30.08-24.19L30.08-24.19Q33.15-23.68 35.33-21.38L35.33-21.38L35.33-21.38Q37.63-18.94 37.63-15.17L37.63-15.17L37.63-15.17Q37.63-7.87 32.19-3.62L32.19-3.62L32.19-3.62Q26.75 0.64 16.06 0.64L16.06 0.64L16.06 0.64Q8.70 0.64 0.45-0.32ZM17.86-20.61L14.66-4.03L14.66-4.03Q15.23-3.97 15.36-3.97L15.36-3.97L15.94-3.97L15.94-3.97Q21.18-3.97 23.42-7.42L23.42-7.42L23.42-7.42Q25.09-10.11 25.09-15.04L25.09-15.04L25.09-15.04Q25.09-17.66 23.39-19.07L23.39-19.07L23.39-19.07Q21.70-20.48 17.86-20.61L17.86-20.61ZM27.58-33.22L27.58-33.22L27.58-33.22Q27.58-38.53 22.46-38.53L22.46-38.53L21.89-38.53L21.89-38.53Q21.63-38.53 21.25-38.46L21.25-38.46L18.69-24.96L19.33-24.96L19.33-24.96Q27.58-25.15 27.58-33.22ZM69.18-9.86L69.18-9.86L69.18-9.86Q70.40-8.32 70.40-5.82L70.40-5.82L70.40-5.82Q70.40-2.37 67.84-0.54L67.84-0.54L67.84-0.54Q65.28 1.28 61.25 1.28L61.25 1.28L61.25 1.28Q58.94 1.28 55.42 0.77L55.42 0.77L55.42 0.77Q48.51-0.32 46.40-0.32L46.40-0.32L46.40-0.32Q44.29-0.32 43.46-0.22L43.46-0.22L43.46-0.22Q42.62-0.13 41.28 0L41.28 0L49.15-42.24L76.74-42.24L76.74-42.24Q76.74-38.34 74.85-36.29L74.85-36.29L74.85-36.29Q72.96-34.24 69.25-34.24L69.25-34.24L69.25-34.24Q65.54-34.24 61.76-35.97L61.76-35.97L59.78-24.77L71.17-24.77L71.17-24.77Q71.17-21.38 69.50-19.49L69.50-19.49L69.50-19.49Q67.84-17.60 65.06-17.60L65.06-17.60L65.06-17.60Q62.27-17.60 60.54-18.24L60.54-18.24L60.54-18.24Q58.82-18.88 58.62-19.07L58.62-19.07L56.32-6.98L56.32-6.98Q57.86-6.78 60.74-6.78L60.74-6.78L60.74-6.78Q65.66-6.78 69.18-9.86ZM77.50-9.47L77.50-9.47L77.50-9.47Q77.50-11.97 78.14-15.17L78.14-15.17L83.33-42.24L97.47-42.24L92.35-14.98L92.35-14.98Q91.78-11.97 91.78-9.76L91.78-9.76L91.78-9.76Q91.78-7.55 92.70-6.40L92.70-6.40L92.70-6.40Q93.63-5.25 95.36-5.25L95.36-5.25L95.36-5.25Q97.09-5.25 98.18-5.70L98.18-5.70L98.18-5.70Q99.26-6.14 100.16-7.23L100.16-7.23L100.16-7.23Q101.89-9.41 102.98-14.98L102.98-14.98L108.16-42.24L117.82-42.24L112.70-15.04L112.70-15.04Q110.91-5.95 105.98-2.30L105.98-2.30L105.98-2.30Q101.18 1.28 91.71 1.28L91.71 1.28L91.71 1.28Q84.61 1.28 80.83-1.79L80.83-1.79L80.83-1.79Q77.50-4.48 77.50-9.47ZM132.22 0L118.53 0L126.34-42.05L126.34-42.05Q132.67-42.75 141.92-42.75L141.92-42.75L141.92-42.75Q151.17-42.75 155.46-40.06L155.46-40.06L155.46-40.06Q159.74-37.38 159.74-31.97L159.74-31.97L159.74-31.97Q159.74-26.56 156.96-23.17L156.96-23.17L156.96-23.17Q154.18-19.78 149.38-18.69L149.38-18.69L149.38-18.69Q150.46-13.38 152.96-9.09L152.96-9.09L152.96-9.09Q155.26-5.06 157.95-3.78L157.95-3.78L157.95-3.78Q156.99-1.09 155.04 0.10L155.04 0.10L155.04 0.10Q153.09 1.28 150.30 1.28L150.30 1.28L150.30 1.28Q147.52 1.28 145.34-0.35L145.34-0.35L145.34-0.35Q143.17-1.98 141.44-4.99L141.44-4.99L141.44-4.99Q137.79-11.52 137.41-21.82L137.41-21.82L137.86-21.82L137.86-21.82Q142.59-21.95 144.96-24.42L144.96-24.42L144.96-24.42Q147.33-26.88 147.33-32.06L147.33-32.06L147.33-32.06Q147.33-38.53 141.89-38.78L141.89-38.78L140.48-38.78L140.48-38.78Q139.90-38.78 139.58-38.72L139.58-38.72L132.22 0ZM163.90-9.47L163.90-9.47L163.90-9.47Q163.90-11.97 164.54-15.17L164.54-15.17L169.73-42.24L183.87-42.24L178.75-14.98L178.75-14.98Q178.18-11.97 178.18-9.76L178.18-9.76L178.18-9.76Q178.18-7.55 179.10-6.40L179.10-6.40L179.10-6.40Q180.03-5.25 181.76-5.25L181.76-5.25L181.76-5.25Q183.49-5.25 184.58-5.70L184.58-5.70L184.58-5.70Q185.66-6.14 186.56-7.23L186.56-7.23L186.56-7.23Q188.29-9.41 189.38-14.98L189.38-14.98L194.56-42.24L204.22-42.24L199.10-15.04L199.10-15.04Q197.31-5.95 192.38-2.30L192.38-2.30L192.38-2.30Q187.58 1.28 178.11 1.28L178.11 1.28L178.11 1.28Q171.01 1.28 167.23-1.79L167.23-1.79L167.23-1.79Q163.90-4.48 163.90-9.47Z" fill="url(#editing-gradow-gradient)"></path></g></g><style>text {
  font-size: 64px;
  font-family: Arial Black;
  dominant-baseline: central;
  text-anchor: middle;
}</style></svg>